<svg xmlns="http://www.w3.org/2000/svg" viewBox="0 0 53.39 56.75"><defs><style>.cls-1{fill:none;stroke:#fff;stroke-miterlimit:10;stroke-width:1.7px;}</style></defs><title>자산 1</title><g id="레이어_2" data-name="레이어 2"><g id="레이어_2-2" data-name="레이어 2"><line class="cls-1" x1="6.61" y1="5.13" x2="39.44" y2="5.13"/><line class="cls-1" x1="6.61" y1="9.31" x2="39.44" y2="9.31"/><path class="cls-1" d="M41.44,29V14.3a.69.69,0,0,0-.69-.69H6.54A5.48,5.48,0,0,1,.85,8.38V6.08A5.48,5.48,0,0,1,6.54.85h34.9"/><path class="cls-1" d="M.85,8.38V50.67A5.48,5.48,0,0,0,6.54,55.9H40.61a.83.83,0,0,0,.83-.82V48.23"/><path class="cls-1" d="M52.47,38.46S48.17,28,33.9,28C19.4,28,15.33,38.46,15.33,38.46S19.2,49,33.9,49C48.06,49,52.47,38.46,52.47,38.46Z"/><circle class="cls-1" cx="33.9" cy="38.47" r="6.97"/></g></g></svg>