<svg xmlns="http://www.w3.org/2000/svg" viewBox="0 0 50.16 59.19"><defs><style>.cls-1{fill:none;stroke:#fff;stroke-miterlimit:10;stroke-width:1.7px;}</style></defs><title>자산 3</title><g id="레이어_2" data-name="레이어 2"><g id="레이어_2-2" data-name="레이어 2"><path class="cls-1" d="M43.78,5.44V1.73A.87.87,0,0,0,42.9.85H1.73a.87.87,0,0,0-.88.88V52.86a.87.87,0,0,0,.88.88h4.2"/><path class="cls-1" d="M49.31,57.27V5.58a.14.14,0,0,0-.14-.14H6.52a.14.14,0,0,0-.14.14V58.19a.15.15,0,0,0,.14.15H48.24A1.07,1.07,0,0,0,49.31,57.27Z"/><line class="cls-1" x1="11.94" y1="32.11" x2="44" y2="32.11"/><line class="cls-1" x1="11.94" y1="15.83" x2="24.05" y2="15.83"/><line class="cls-1" x1="11.94" y1="49.86" x2="44" y2="49.86"/><circle class="cls-1" cx="37.77" cy="23.67" r="4.35"/><line class="cls-1" x1="33.65" y1="46.69" x2="41.89" y2="38.45"/><line class="cls-1" x1="41.89" y1="46.69" x2="33.65" y2="38.45"/></g></g></svg>