<svg xmlns="http://www.w3.org/2000/svg" viewBox="0 0 40.7 56.88"><defs><style>.cls-1{fill:none;stroke:#fff;stroke-miterlimit:10;stroke-width:1.7px;}</style></defs><title>자산 2</title><g id="레이어_2" data-name="레이어 2"><g id="레이어_2-2" data-name="레이어 2"><path class="cls-1" d="M36.73,55.84l-15.49-6.7a2.21,2.21,0,0,0-1.78,0L4,55.84A2.23,2.23,0,0,1,.85,53.79V3.08A2.23,2.23,0,0,1,3.08.85H37.61a2.23,2.23,0,0,1,2.24,2.23V53.79A2.23,2.23,0,0,1,36.73,55.84Z"/><path class="cls-1" d="M24.69,23.77l8.46,1.15a.38.38,0,0,1,.21.64l-6.07,6a.4.4,0,0,0-.1.33l1.52,8.41a.37.37,0,0,1-.54.39l-7.59-3.91a.43.43,0,0,0-.35,0l-7.52,4a.37.37,0,0,1-.55-.38L13.54,32a.43.43,0,0,0-.11-.33L7.26,25.78a.38.38,0,0,1,.2-.64l8.44-1.3a.35.35,0,0,0,.28-.2L19.89,16a.38.38,0,0,1,.67,0l3.84,7.63A.38.38,0,0,0,24.69,23.77Z"/></g></g></svg>