<svg xmlns="http://www.w3.org/2000/svg" viewBox="0 0 51.27 57.52"><defs><style>.cls-1{fill:none;stroke:#fff;stroke-miterlimit:10;stroke-width:1.7px;}</style></defs><title>자산 4</title><g id="레이어_2" data-name="레이어 2"><g id="레이어_2-2" data-name="레이어 2"><line class="cls-1" x1="6.69" y1="5.19" x2="39.98" y2="5.19"/><line class="cls-1" x1="6.69" y1="9.43" x2="39.98" y2="9.43"/><path class="cls-1" d="M42,25.27V14.76a1,1,0,0,0-1-1H6.62A5.55,5.55,0,0,1,.85,8.48V6.16A5.55,5.55,0,0,1,6.62.85H42"/><path class="cls-1" d="M.85,8.48V51.36a5.55,5.55,0,0,0,5.77,5.31H41a1,1,0,0,0,1-1v-6"/><circle class="cls-1" cx="36.88" cy="37.81" r="13.54"/><polyline class="cls-1" points="27.41 37.44 34.84 45.51 46.66 32.68"/></g></g></svg>